<svg width="269" height="8" viewBox="0 0 269 8" fill="none" xmlns="http://www.w3.org/2000/svg">
<path d="M268 7C254.645 7 254.645 0.999978 241.291 0.999979C227.936 0.99998 227.936 7 214.581 7C201.226 7.00001 201.226 0.999983 187.903 0.999984C174.548 0.999985 174.548 7.00001 161.225 7.00001C147.87 7.00001 147.87 0.999987 134.547 0.999988C121.192 0.99999 121.192 7.00001 107.838 7.00001C94.483 7.00002 94.483 0.999992 81.128 0.999993C67.774 0.999994 67.774 7.00002 54.419 7.00002C41.064 7.00002 41.064 0.999997 27.709 0.999998C14.355 0.999999 14.355 7.00002 1 7.00002" stroke="#0072FF" stroke-width="2" stroke-miterlimit="10" stroke-linecap="round"/>
</svg>
