<svg width="37" height="37" viewBox="0 0 37 37" fill="none" xmlns="http://www.w3.org/2000/svg">
<path d="M7.26153 4.09309L18.5 15.3312L29.6922 4.13933C29.8884 3.93057 30.1246 3.76356 30.3869 3.64833C30.6492 3.5331 30.932 3.47202 31.2184 3.46875C31.8317 3.46875 32.4199 3.71237 32.8536 4.14602C33.2872 4.57968 33.5309 5.16783 33.5309 5.78111C33.5363 6.06461 33.4837 6.34622 33.3763 6.60866C33.2689 6.8711 33.1091 7.10883 32.9065 7.30727L21.5987 18.4991L32.9065 29.8065C33.2876 30.1794 33.5111 30.6843 33.5309 31.2171C33.5309 31.8303 33.2872 32.4185 32.8536 32.8521C32.4199 33.2858 31.8317 33.5294 31.2184 33.5294C30.9237 33.5416 30.6297 33.4925 30.355 33.385C30.0803 33.2775 29.831 33.1141 29.6228 32.9051L18.5 21.667L7.28466 32.882C7.08927 33.0838 6.85585 33.2449 6.59787 33.356C6.33988 33.4671 6.06245 33.5261 5.78157 33.5294C5.16827 33.5294 4.58009 33.2858 4.14642 32.8521C3.71276 32.4185 3.46913 31.8303 3.46913 31.2171C3.46373 30.9336 3.51634 30.652 3.6237 30.3895C3.73107 30.1271 3.89093 29.8893 4.09349 29.6909L15.4013 18.4991L4.09349 7.19165C3.71236 6.8188 3.48887 6.3139 3.46913 5.78111C3.46913 5.16783 3.71276 4.57968 4.14642 4.14602C4.58009 3.71237 5.16827 3.46875 5.78157 3.46875C6.33655 3.47569 6.86842 3.69999 7.26153 4.09309Z" fill="black"/>
</svg>
