<svg width="41" height="41" viewBox="0 0 41 41" fill="none" xmlns="http://www.w3.org/2000/svg">
<path d="M35.7337 12.8999L35.7337 27.2841C35.7346 27.852 35.5745 28.4084 35.2722 28.8892C34.9699 29.3699 34.5376 29.7551 34.0254 30.0003C33.4177 30.2874 32.7415 30.3979 32.074 30.3194C31.4065 30.2409 30.7745 29.9764 30.25 29.5562L21.5375 22.3641C21.2118 22.0818 20.9506 21.7329 20.7716 21.3409C20.5926 20.9489 20.5 20.5229 20.5 20.092C20.5 19.6611 20.5926 19.2351 20.7716 18.8431C20.9506 18.4511 21.2118 18.1022 21.5375 17.8199L30.25 10.6278C30.7745 10.2076 31.4065 9.94311 32.074 9.86458C32.7415 9.78605 33.4177 9.89661 34.0254 10.1837C34.5376 10.4289 34.9699 10.8141 35.2722 11.2948C35.5745 11.7755 35.7346 12.332 35.7337 12.8999Z" fill="black"/>
<path d="M17.6937 12.8999L17.6937 27.2841C17.6945 27.852 17.5345 28.4084 17.2322 28.8892C16.9298 29.3699 16.4976 29.7551 15.9854 30.0003C15.3776 30.2874 14.7015 30.3979 14.034 30.3194C13.3665 30.2409 12.7345 29.9764 12.2099 29.5562L3.49744 22.3641C3.17178 22.0818 2.9106 21.7329 2.7316 21.3409C2.5526 20.9489 2.45996 20.5229 2.45996 20.092C2.45996 19.6611 2.5526 19.2351 2.7316 18.8431C2.9106 18.4511 3.17178 18.1022 3.49744 17.8199L12.2099 10.6278C12.7345 10.2076 13.3665 9.94311 14.034 9.86458C14.7015 9.78605 15.3776 9.89661 15.9854 10.1837C16.4976 10.4289 16.9298 10.8141 17.2322 11.2948C17.5345 11.7756 17.6945 12.332 17.6937 12.8999Z" fill="black"/>
</svg>
