<svg width="41" height="41" viewBox="0 0 41 41" fill="none" xmlns="http://www.w3.org/2000/svg">
<path d="M5.26627 28.1001L5.26626 13.7159C5.26544 13.148 5.42546 12.5916 5.72779 12.1108C6.03011 11.6301 6.4624 11.2449 6.9746 10.9997C7.58232 10.7126 8.25847 10.6021 8.92597 10.6806C9.59348 10.7591 10.2255 11.0236 10.75 11.4438L19.4625 18.6359C19.7882 18.9182 20.0494 19.2671 20.2284 19.6591C20.4074 20.0511 20.5 20.4771 20.5 20.908C20.5 21.3389 20.4074 21.7649 20.2284 22.1569C20.0494 22.5489 19.7882 22.8978 19.4625 23.1801L10.75 30.3722C10.2255 30.7924 9.59348 31.0569 8.92597 31.1354C8.25847 31.214 7.58233 31.1034 6.9746 30.8163C6.4624 30.5711 6.03012 30.1859 5.72779 29.7052C5.42546 29.2245 5.26544 28.668 5.26627 28.1001Z" fill="black"/>
<path d="M23.3063 28.1001L23.3063 13.7159C23.3055 13.148 23.4655 12.5916 23.7678 12.1108C24.0702 11.6301 24.5024 11.2449 25.0146 10.9997C25.6224 10.7126 26.2985 10.6021 26.966 10.6806C27.6335 10.7591 28.2655 11.0236 28.7901 11.4438L37.5026 18.6359C37.8282 18.9182 38.0894 19.2671 38.2684 19.6591C38.4474 20.0511 38.54 20.4771 38.54 20.908C38.54 21.3389 38.4474 21.7649 38.2684 22.1569C38.0894 22.5489 37.8282 22.8978 37.5026 23.1801L28.7901 30.3722C28.2655 30.7924 27.6335 31.0569 26.966 31.1354C26.2985 31.214 25.6224 31.1034 25.0146 30.8163C24.5024 30.5711 24.0702 30.1859 23.7678 29.7052C23.4655 29.2244 23.3055 28.668 23.3063 28.1001Z" fill="black"/>
</svg>
