<svg width="50" height="50" viewBox="0 0 50 50" fill="none" xmlns="http://www.w3.org/2000/svg">
<path d="M24.9998 4.0625C13.4998 4.0625 4.1665 13.3958 4.1665 24.8958C4.1665 36.3958 13.4998 45.7292 24.9998 45.7292H35.4165V41.5625H24.9998C15.9582 41.5625 8.33317 33.9375 8.33317 24.8958C8.33317 15.8542 15.9582 8.22917 24.9998 8.22917C34.0415 8.22917 41.6665 15.8542 41.6665 24.8958V27.875C41.6665 29.5208 40.1873 31.1458 38.5415 31.1458C36.8957 31.1458 35.4165 29.5208 35.4165 27.875V24.8958C35.4165 19.1458 30.7498 14.4792 24.9998 14.4792C19.2498 14.4792 14.5832 19.1458 14.5832 24.8958C14.5832 30.6458 19.2498 35.3125 24.9998 35.3125C27.8748 35.3125 30.4998 34.1458 32.3748 32.25C33.729 34.1042 36.0623 35.3125 38.5415 35.3125C42.6457 35.3125 45.8332 31.9792 45.8332 27.875V24.8958C45.8332 13.3958 36.4998 4.0625 24.9998 4.0625ZM24.9998 31.1458C21.5415 31.1458 18.7498 28.3542 18.7498 24.8958C18.7498 21.4375 21.5415 18.6458 24.9998 18.6458C28.4582 18.6458 31.2498 21.4375 31.2498 24.8958C31.2498 28.3542 28.4582 31.1458 24.9998 31.1458Z" fill="black"/>
</svg>
