<svg width="50" height="50" viewBox="0 0 50 50" fill="none" xmlns="http://www.w3.org/2000/svg">
<path fill-rule="evenodd" clip-rule="evenodd" d="M15.5522 2.22075C17.996 2.10825 18.7752 2.08325 25.0002 2.08325C31.2252 2.08325 32.0043 2.11034 34.446 2.22075C36.8877 2.33117 38.5543 2.72075 40.0127 3.28534C41.5397 3.86242 42.9252 4.7645 44.071 5.93117C45.2377 7.07492 46.1377 8.45825 46.7127 9.98742C47.2793 11.4458 47.6668 13.1124 47.7793 15.5499C47.8918 17.9978 47.9168 18.777 47.9168 24.9999C47.9168 31.2249 47.8897 32.0041 47.7793 34.4478C47.6689 36.8853 47.2793 38.552 46.7127 40.0103C46.1376 41.5397 45.2362 42.9253 44.071 44.0707C42.9252 45.2374 41.5397 46.1374 40.0127 46.7124C38.5543 47.2791 36.8877 47.6666 34.4502 47.7791C32.0043 47.8916 31.2252 47.9166 25.0002 47.9166C18.7752 47.9166 17.996 47.8895 15.5522 47.7791C13.1147 47.6687 11.4481 47.2791 9.98975 46.7124C8.46041 46.1373 7.07479 45.2359 5.92933 44.0707C4.76345 42.9263 3.86124 41.5413 3.28558 40.0124C2.721 38.5541 2.3335 36.8874 2.221 34.4499C2.1085 32.002 2.0835 31.2228 2.0835 24.9999C2.0835 18.7749 2.11058 17.9958 2.221 15.5541C2.33141 13.1124 2.721 11.4458 3.28558 9.98742C3.86209 8.45842 4.76499 7.07349 5.93141 5.92909C7.07525 4.76346 8.45948 3.86126 9.98766 3.28534C11.446 2.72075 13.1127 2.33325 15.5502 2.22075H15.5522ZM34.2606 6.34575C31.8439 6.23534 31.1189 6.21242 25.0002 6.21242C18.8814 6.21242 18.1564 6.23534 15.7397 6.34575C13.5043 6.44783 12.2918 6.82075 11.4835 7.13533C10.4147 7.552 9.65016 8.04575 8.84808 8.84784C8.08776 9.58753 7.50262 10.488 7.13558 11.4833C6.821 12.2916 6.44808 13.5041 6.346 15.7395C6.23558 18.1562 6.21266 18.8812 6.21266 24.9999C6.21266 31.1187 6.23558 31.8437 6.346 34.2603C6.44808 36.4958 6.821 37.7083 7.13558 38.5166C7.50225 39.5103 8.08766 40.4124 8.84808 41.152C9.58766 41.9124 10.4897 42.4978 11.4835 42.8645C12.2918 43.1791 13.5043 43.552 15.7397 43.6541C18.1564 43.7645 18.8793 43.7874 25.0002 43.7874C31.121 43.7874 31.8439 43.7645 34.2606 43.6541C36.496 43.552 37.7085 43.1791 38.5168 42.8645C39.5856 42.4478 40.3502 41.9541 41.1522 41.152C41.9127 40.4124 42.4981 39.5103 42.8647 38.5166C43.1793 37.7083 43.5522 36.4958 43.6543 34.2603C43.7647 31.8437 43.7877 31.1187 43.7877 24.9999C43.7877 18.8812 43.7647 18.1562 43.6543 15.7395C43.5522 13.5041 43.1793 12.2916 42.8647 11.4833C42.4481 10.4145 41.9543 9.64992 41.1522 8.84784C40.4125 8.08757 39.512 7.50244 38.5168 7.13533C37.7085 6.82075 36.496 6.44783 34.2606 6.34575ZM22.0731 32.0645C23.7078 32.745 25.528 32.8368 27.2229 32.3243C28.9178 31.8118 30.3822 30.7268 31.366 29.2546C32.3498 27.7824 32.7919 26.0142 32.6169 24.2522C32.4419 22.4902 31.6606 20.8436 30.4064 19.5937C29.6069 18.7947 28.6402 18.1829 27.5759 17.8023C26.5115 17.4218 25.3761 17.2819 24.2512 17.3929C23.1263 17.5038 22.0401 17.8628 21.0706 18.4439C20.1011 19.0251 19.2725 19.814 18.6445 20.7538C18.0165 21.6936 17.6047 22.7609 17.4387 23.879C17.2728 24.9971 17.3567 26.138 17.6846 27.2197C18.0125 28.3015 18.5762 29.297 19.335 30.1348C20.0938 30.9725 21.029 31.6316 22.0731 32.0645ZM16.671 16.6708C17.7648 15.5769 19.0633 14.7093 20.4924 14.1173C21.9216 13.5254 23.4533 13.2207 25.0002 13.2207C26.547 13.2207 28.0788 13.5254 29.5079 14.1173C30.937 14.7093 32.2355 15.5769 33.3293 16.6708C34.4231 17.7646 35.2908 19.0631 35.8827 20.4922C36.4747 21.9213 36.7794 23.453 36.7794 24.9999C36.7794 26.5468 36.4747 28.0785 35.8827 29.5076C35.2908 30.9368 34.4231 32.2353 33.3293 33.3291C31.1203 35.5381 28.1242 36.7791 25.0002 36.7791C21.8761 36.7791 18.88 35.5381 16.671 33.3291C14.462 31.1201 13.2209 28.124 13.2209 24.9999C13.2209 21.8759 14.462 18.8798 16.671 16.6708ZM39.3918 14.9749C39.6629 14.7192 39.8799 14.4118 40.03 14.0707C40.18 13.7296 40.2602 13.3619 40.2656 12.9894C40.271 12.6168 40.2017 12.2469 40.0616 11.9016C39.9215 11.5563 39.7136 11.2426 39.4501 10.9792C39.1866 10.7157 38.8729 10.5077 38.5276 10.3677C38.1824 10.2276 37.8125 10.1582 37.4399 10.1636C37.0673 10.1691 36.6996 10.2492 36.3586 10.3993C36.0175 10.5494 35.71 10.7664 35.4543 11.0374C34.9571 11.5646 34.6848 12.2648 34.6954 12.9894C34.7059 13.714 34.9985 14.4059 35.5109 14.9183C36.0233 15.4308 36.7153 15.7233 37.4399 15.7339C38.1645 15.7444 38.8647 15.4722 39.3918 14.9749Z" fill="black"/>
</svg>
