<svg width="41" height="41" viewBox="0 0 41 41" fill="none" xmlns="http://www.w3.org/2000/svg">
<path d="M17.0833 30.75C20.1155 30.7494 23.0604 29.7343 25.449 27.8663L32.9588 35.3762L35.3744 32.9606L27.8646 25.4507C29.7335 23.0619 30.7492 20.1164 30.75 17.0833C30.75 9.54786 24.6188 3.41666 17.0833 3.41666C9.54784 3.41666 3.41663 9.54786 3.41663 17.0833C3.41663 24.6188 9.54784 30.75 17.0833 30.75ZM17.0833 6.83332C22.7362 6.83332 27.3333 11.4304 27.3333 17.0833C27.3333 22.7362 22.7362 27.3333 17.0833 27.3333C11.4304 27.3333 6.83329 22.7362 6.83329 17.0833C6.83329 11.4304 11.4304 6.83332 17.0833 6.83332Z" fill="black"/>
<path d="M19.4955 14.6677C19.7292 14.902 19.925 15.1634 20.0799 15.4446C20.5355 16.2717 21.2655 17.0833 22.2098 17.0833V17.0833C23.153 17.0833 23.9392 16.3079 23.7063 15.394C23.6259 15.0787 23.5228 14.7689 23.3975 14.467C23.0533 13.6378 22.5481 12.885 21.9111 12.2522C19.7338 10.0777 16.2114 9.73377 13.6096 11.2204C12.7907 11.6883 12.7951 12.7931 13.461 13.4609V13.4609C14.1275 14.1293 15.2231 14.079 16.1332 13.8286C17.2955 13.5087 18.6153 13.7899 19.4955 14.6677Z" fill="#CC9FB2"/>
</svg>
